<svg width="83" height="135" xmlns="http://www.w3.org/2000/svg" xmlns:xlink="http://www.w3.org/1999/xlink">
 <metadata id="metadata3248">image/svg+xml</metadata>
 <defs>
  <linearGradient y2="-3.21697" xlink:href="#linearGradient15879" x2="-2.77816" gradientTransform="matrix(3.9279335,0,0,3.9279335,312.67926,-1030.7391)" y1="-3.21697" x1="-2.77527" id="linearGradient5655"/>
  <linearGradient y2="3.55558" xlink:href="#linearGradient5657" x2="0.5" y1="3.55558" x1="0.5" id="linearGradient5653"/>
  <linearGradient y2="-0.00038" xlink:href="#linearGradient5657" x2="0.5" y1="-0.00038" x1="0.5" id="linearGradient5651"/>
  <linearGradient id="linearGradient5663">
   <stop stop-color="#ffffff" id="stop5665" offset="0"/>
   <stop stop-color="#ddd6ce" id="stop5667" offset="1"/>
  </linearGradient>
  <linearGradient y2="0.26865" xlink:href="#linearGradient5663" x2="0.64403" gradientTransform="matrix(0.700686,0,0,1.0001797,188.89976,-223.46087)" y1="0.26865" x1="0.64403" id="linearGradient5649"/>
  <linearGradient id="linearGradient5657">
   <stop stop-color="#216ed2" id="stop5659" offset="0"/>
   <stop stop-color="#6dbffa" id="stop5661" offset="1"/>
  </linearGradient>
  <linearGradient y2="-0.00036" xlink:href="#linearGradient5657" x2="0.5" y1="-0.00036" x1="0.4711" id="linearGradient5647"/>
  <linearGradient id="linearGradient15879">
   <stop stop-color="#722b15" id="stop15881" offset="0"/>
   <stop stop-color="#a56706" id="stop15883" offset="1"/>
  </linearGradient>
 </defs>
 <g>
  <title>Layer 1</title>
  <g id="g5619">
   <g id="g5621">
    <path fill="url(#linearGradient5647)" fill-rule="evenodd" stroke="#000000" stroke-width="0.25" stroke-miterlimit="4" id="path5623" d="m81.50637,43.60848c0,16.61546 -16.41456,38.18308 -28.77956,49.95417c-14.07663,-0.22471 -8.61674,-0.28954 -24.61441,0.24316c-12.18382,-11.73205 -28.0499,-33.52168 -28.0499,-50.19733c0,-24.03232 18.24343,-43.53681 40.72193,-43.53681c22.47851,0 40.72194,19.50449 40.72194,43.53681z"/>
    <path fill="url(#linearGradient5649)" fill-rule="evenodd" stroke="#000000" stroke-width="0.5" stroke-miterlimit="4" id="path5625" d="m69.35525,43.60713c0,16.54035 -11.39359,37.9873 -20.0431,49.79652c-10.54493,0.00575 -6.21492,-0.0611 -17.5438,0.16906c-8.5132,-11.78953 -19.47967,-33.40034 -19.47967,-49.96558c0,-24.03663 12.78291,-43.54463 28.53328,-43.54463c13.35756,0 24.58082,14.03089 27.68262,32.9557c0.55565,3.39011 0.85067,6.93726 0.85067,10.58893l0,0z"/>
    <path fill="url(#linearGradient5651)" fill-rule="evenodd" stroke="#000000" stroke-width="0.62496" stroke-miterlimit="4" d="m51.3592,43.60695c0,16.50103 -4.30351,37.89061 -7.57751,49.69686c-6.38027,0.04733 0.1668,-0.0028 -6.69607,0.07108c-3.2183,-11.80821 -7.33763,-33.28771 -7.33763,-49.76793c0,-24.01087 4.84091,-43.49795 10.80561,-43.49795c5.96469,0 10.8056,19.48708 10.8056,43.49795l0,0z" id="path5627"/>
   </g>
   <g stroke="#000000" id="g5629">
    <path fill="none" stroke="#000000" stroke-width="1px" d="m28.87343,93.79661c2.12079,7.62154 3.79708,15.45611 4.92419,23.32607" id="path5631"/>
    <path fill="none" stroke="#000000" stroke-width="1px" d="m35.26466,93.79496l2.64669,23.26569" id="path5633"/>
    <path fill="none" stroke="#000000" stroke-width="1px" d="m44.37493,93.82154l-1.14262,23.22265" id="path5639"/>
    <path fill="none" stroke="#000000" stroke-width="1px" d="m51.58737,93.79967c-2.04496,7.93426 -3.27909,15.59107 -4.08467,23.27744" id="path5641"/>
   </g>
   <path fill="url(#linearGradient5653)" fill-rule="evenodd" stroke="#000000" stroke-width="0.131" stroke-miterlimit="4" id="path5643" d="m28.35493,94.22195l-0.75755,-0.93049l25.36178,0.0247l-0.55994,1.10339l-24.04429,-0.19762l0,0.00002z"/>
   <path fill="url(#linearGradient5655)" fill-rule="evenodd" stroke="#000000" stroke-width="0.51051" stroke-linecap="round" stroke-miterlimit="4" stroke-dashoffset="0" id="path5645" d="m30.87943,116.87478c-0.90249,0 -1.63086,0.72835 -1.63086,1.63085c0,0.9025 0.72836,1.63087 1.63086,1.63087l0.58047,0c-0.02822,0.19353 -0.04146,0.39697 -0.04146,0.63575l0,7.7673c0,3.15953 2.54848,5.70799 5.708,5.70801l7.47707,0c3.15952,0 5.708,-2.54846 5.708,-5.70801l0,-7.7673c0,-0.23907 -0.01317,-0.44202 -0.04146,-0.63575l0.58047,0c0.90249,0 1.63086,-0.72838 1.63086,-1.63087c0,-0.90249 -0.72836,-1.63085 -1.63086,-1.63085l-19.97109,0l0,0z"/>
  </g>
 </g>
</svg>